HIERARCHY
ROOT Hips
{
	OFFSET 0.00000 0.00000 0.00000
	CHANNELS 6 Xposition Yposition Zposition Zrotation Yrotation Xrotation 
	JOINT LHipJoint
	{
		OFFSET 0 0 0
		CHANNELS 3 Zrotation Yrotation Xrotation
		JOINT LeftUpLeg
		{
			OFFSET 1.26600 -1.82114 0.91038
			CHANNELS 3 Zrotation Yrotation Xrotation
			JOINT LeftLeg
			{
				OFFSET 2.50076 -6.87080 0.00000
				CHANNELS 3 Zrotation Yrotation Xrotation
				JOINT LeftFoot
				{
					OFFSET 2.57364 -7.07102 0.00000
					CHANNELS 3 Zrotation Yrotation Xrotation
					JOINT LeftToeBase
					{
						OFFSET 0.13572 -0.37290 1.97004
						CHANNELS 3 Zrotation Yrotation Xrotation
						End Site
						{
							OFFSET 0.00000 -0.00000 1.01383
						}
					}
				}
			}
		}
	}
	JOINT RHipJoint
	{
		OFFSET 0 0 0
		CHANNELS 3 Zrotation Yrotation Xrotation
		JOINT RightUpLeg
		{
			OFFSET -1.20803 -1.82114 0.91038
			CHANNELS 3 Zrotation Yrotation Xrotation
			JOINT RightLeg
			{
				OFFSET -2.54916 -7.00377 0.00000
				CHANNELS 3 Zrotation Yrotation Xrotation
				JOINT RightFoot
				{
					OFFSET -2.56374 -7.04382 0.00000
					CHANNELS 3 Zrotation Yrotation Xrotation
					JOINT RightToeBase
					{
						OFFSET -0.23520 -0.64621 2.09921
						CHANNELS 3 Zrotation Yrotation Xrotation
						End Site
						{
							OFFSET -0.00000 -0.00000 1.10065
						}
					}
				}
			}
		}
	}
	JOINT LowerBack
	{
		OFFSET 0 0 0
		CHANNELS 3 Zrotation Yrotation Xrotation
		JOINT Spine
		{
			OFFSET 0.05492 2.10797 -0.12074
			CHANNELS 3 Zrotation Yrotation Xrotation
			JOINT Spine1
			{
				OFFSET 0.04577 2.11592 -0.04483
				CHANNELS 3 Zrotation Yrotation Xrotation
				JOINT Neck
				{
					OFFSET 0 0 0
					CHANNELS 3 Zrotation Yrotation Xrotation
					JOINT Neck1
					{
						OFFSET -0.10759 1.80167 0.15770
						CHANNELS 3 Zrotation Yrotation Xrotation
						JOINT Head
						{
							OFFSET 0.09237 1.77509 -0.40848
							CHANNELS 3 Zrotation Yrotation Xrotation
							End Site
							{
								OFFSET 0.03805 1.84093 -0.15754
							}
						}
					}
				}
				JOINT LeftShoulder
				{
					OFFSET 0 0 0
					CHANNELS 3 Zrotation Yrotation Xrotation
					JOINT LeftArm
					{
						OFFSET 3.42372 1.09575 -0.28209
						CHANNELS 3 Zrotation Yrotation Xrotation
						JOINT LeftForeArm
						{
							OFFSET 4.95681 -0.00000 0.00000
							CHANNELS 3 Zrotation Yrotation Xrotation
							JOINT LeftHand
							{
								OFFSET 3.40915 -0.00000 0.00000
								CHANNELS 3 Zrotation Yrotation Xrotation
								JOINT LeftFingerBase
								{
									OFFSET 0 0 0
									CHANNELS 3 Zrotation Yrotation Xrotation
									JOINT LeftHandIndex1
									{
										OFFSET 0.61640 -0.00000 0.00000
										CHANNELS 3 Zrotation Yrotation Xrotation
										End Site
										{
											OFFSET 0.49696 -0.00000 0.00000
										}
									}
								}
								JOINT LThumb
								{
									OFFSET 0 0 0
									CHANNELS 3 Zrotation Yrotation Xrotation
									End Site
									{
										OFFSET 0.50455 -0.00000 0.50455
									}
								}
							}
						}
					}
				}
				JOINT RightShoulder
				{
					OFFSET 0 0 0
					CHANNELS 3 Zrotation Yrotation Xrotation
					JOINT RightArm
					{
						OFFSET -3.24731 1.15872 -0.32221
						CHANNELS 3 Zrotation Yrotation Xrotation
						JOINT RightForeArm
						{
							OFFSET -5.35200 -0.00000 0.00000
							CHANNELS 3 Zrotation Yrotation Xrotation
							JOINT RightHand
							{
								OFFSET -3.43721 -0.00000 -0.00000
								CHANNELS 3 Zrotation Yrotation Xrotation
								JOINT RightFingerBase
								{
									OFFSET 0 0 0
									CHANNELS 3 Zrotation Yrotation Xrotation
									JOINT RightHandIndex1
									{
										OFFSET -0.72009 -0.00000 0.00000
										CHANNELS 3 Zrotation Yrotation Xrotation
										End Site
										{
											OFFSET -0.58056 -0.00000 0.00000
										}
									}
								}
								JOINT RThumb
								{
									OFFSET 0 0 0
									CHANNELS 3 Zrotation Yrotation Xrotation
									End Site
									{
										OFFSET -0.58942 -0.00000 0.58942
									}
								}
							}
						}
					}
				}
			}
		}
	}
}
MOTION
Frames: 5
Frame Time: .0083333
-13.2252 17.3496 21.8529 -9.0495 43.5663 -3.9019 0.0000 0.0000 0.0000 -16.0332 1.9842 -14.8931 3.8725 11.9888 35.6925 1.9140 1.7390 -26.8253 0.3496 3.7988 10.5113 0.0000 0.0000 0.0000 24.7365 3.3028 -14.5007 -3.8330 -11.9348 35.5017 -0.8517 14.0563 -17.9362 -0.9355 -6.1610 17.2522 -1.6738 -4.7880 4.1066 3.0624 -6.3967 0.3122 4.3995 -3.1821 -1.4364 -18.6441 -17.1612 4.3537 15.9664 -24.4665 3.8129 6.1557 -12.3224 4.6944 -0.0000 0.0000 0.0000 -88.8527 4.7201 16.8318 16.2483 -25.8562 -3.7536 -0.0000 0.0000 -3.7358 20.0324 20.3958 7.2416 -7.1250 0.0000 -0.0000 -8.5793 51.3727 -1.3551 -0.0000 0.0000 0.0000 86.8301 -0.0353 18.1324 -14.6200 23.6140 -3.0721 0.0000 -0.0000 -11.2759 -21.1879 12.8376 -4.9226 7.1250 -0.0000 -0.0000 4.2160 -16.2700 2.8739
-13.2244 17.3489 21.8467 -9.0510 43.8093 -3.9488 0.0000 0.0000 0.0000 -16.0640 2.0903 -14.9629 3.8836 12.0039 35.7456 1.8819 1.6566 -26.5724 0.2835 3.4246 9.4631 0.0000 0.0000 0.0000 24.7018 2.9762 -14.7505 -3.8247 -11.9234 35.4616 -0.8278 14.0255 -17.7366 -0.9699 -6.2700 17.5698 -1.6729 -4.7987 4.1267 3.0493 -6.4115 0.3563 4.3853 -3.1907 -1.4025 -18.8247 -17.2878 4.3375 16.0261 -24.6579 3.8966 6.1565 -12.4157 4.7849 0.0000 0.0000 0.0000 -88.8708 4.6253 16.8320 16.2237 -25.8230 -3.7429 -0.0000 0.0000 -3.6525 19.8707 20.3286 7.1565 -7.1250 0.0000 -0.0000 -8.7164 51.2762 -1.3563 0.0000 0.0000 0.0000 86.7938 -0.0340 18.1856 -14.6929 23.7166 -3.1014 0.0000 -0.0000 -11.3230 -21.2578 12.8355 -4.9395 7.1250 -0.0000 -0.0000 4.1676 -16.2655 2.8411
-13.2259 17.3588 21.8395 -8.9089 44.1167 -3.8804 0.0000 0.0000 0.0000 -16.2200 1.7408 -14.8920 3.8947 12.0189 35.7988 1.8694 1.6374 -26.4786 0.2691 3.3367 9.2177 0.0000 0.0000 0.0000 24.5242 3.0739 -14.6673 -3.8226 -11.9206 35.4515 -0.8378 13.8506 -17.7583 -1.0748 -6.5900 18.5063 -1.7247 -4.7993 4.2125 2.9689 -6.4163 0.3442 4.3406 -3.1914 -1.4660 -18.8730 -17.4629 4.2561 15.9361 -24.8959 4.0651 6.0828 -12.5281 4.8830 -0.0000 0.0000 0.0000 -88.8262 4.5471 16.8501 16.1439 -25.7154 -3.7082 -0.0000 0.0000 -3.5722 19.8332 20.1012 7.0662 -7.1250 0.0000 -0.0000 -8.6780 51.0360 -1.2988 -0.0000 0.0000 0.0000 86.8216 -0.1054 18.2861 -14.7609 23.8120 -3.1288 0.0000 -0.0000 -11.6886 -21.6429 13.0688 -5.1270 7.1250 -0.0000 -0.0000 3.9112 -15.9793 2.6897
-13.2279 17.3544 21.8323 -8.7085 44.3985 -3.6589 0.0000 0.0000 0.0000 -16.4261 1.4550 -14.9801 3.8952 12.0197 35.8016 1.8583 1.6219 -26.3956 0.2527 3.2343 8.9316 0.0000 0.0000 0.0000 24.3239 3.1008 -14.4948 -3.8299 -11.9306 35.4869 -0.9180 13.5978 -18.3140 -0.9103 -6.0797 17.0158 -1.7971 -4.7774 4.1891 2.8633 -6.3921 0.2659 4.2734 -3.1766 -1.5400 -18.7563 -17.6162 4.2765 15.7815 -25.0912 4.0740 5.9966 -12.6245 4.8793 -0.0000 0.0000 0.0000 -88.6756 4.6634 17.3055 16.1562 -25.7320 -3.7135 -0.0000 0.0000 -3.8032 20.0346 19.5917 6.9712 -7.1250 0.0000 -0.0000 -8.3172 50.5443 -1.1433 -0.0000 0.0000 0.0000 86.8988 -0.2349 18.1969 -14.8046 23.8732 -3.1464 0.0000 -0.0000 -11.8129 -21.4997 12.9469 -5.0435 7.1250 -0.0000 -0.0000 4.0049 -16.1232 2.7420
-13.2268 17.3455 21.8278 -8.5979 44.6164 -3.4131 0.0000 0.0000 0.0000 -16.5631 1.4795 -15.2593 3.8926 12.0161 35.7891 1.8259 1.6755 -26.1910 0.2029 2.9007 8.0025 0.0000 0.0000 0.0000 24.1899 2.7646 -14.6769 -3.8381 -11.9418 35.5265 -0.9654 13.5791 -18.6784 -0.7136 -5.3984 15.0486 -1.8679 -4.7583 4.0094 2.8348 -6.3697 0.1996 4.2687 -3.1651 -1.5055 -18.7594 -17.6683 4.3099 15.7917 -25.1737 4.1192 5.9879 -12.6659 4.9035 0.0000 0.0000 0.0000 -88.6644 4.8383 17.6251 16.2976 -25.9225 -3.7751 -0.0000 0.0000 -3.9836 20.1495 18.7976 6.7430 -7.1250 0.0000 -0.0000 -7.9637 49.7420 -0.9363 0.0000 0.0000 0.0000 86.9453 -0.3551 18.0042 -14.8653 23.9582 -3.1711 0.0000 -0.0000 -11.7782 -21.4386 12.8971 -5.0089 7.1250 -0.0000 -0.0000 4.0451 -16.1823 2.7645
